LSLDJ_XZ.mot
version=1
datacolumns 20
datarows 41
range 0.000000 0.400000
inDegrees=yes
endheader
time	pelvis_tilt	pelvis_list	pelvis_rotation	hip_flexion_r	hip_adduction_r	hip_rotation_r	knee_angle_r	ankle_angle_r	hip_flexion_l	hip_adduction_l	hip_rotation_l	knee_angle_l	ankle_angle_l	pelvis_tx	pelvis_ty	pelvis_tz	lumbar_bending	lumbar_rotation	lumbar_extension
0.000000	-14.525655	-1.677801	3.499425	41.640388	-2.010959	1.522666	-49.262020	4.546996	20.243856	4.251594	-7.922702	-29.049824	16.346951	-0.038530	1.266502	0.177915	-0.000000	-0.000000	0.000000
0.010000	-14.098683	-1.312590	3.368843	41.438603	-2.285282	2.335125	-49.406634	4.163784	20.033497	4.509210	-7.269928	-29.726862	16.237182	-0.037275	1.265109	0.178138	-0.000000	-0.000000	0.000000
0.020000	-13.958295	-1.076912	3.205551	41.657791	-2.443328	2.538154	-49.703063	3.972175	20.292876	4.598193	-6.772462	-31.099786	16.800730	-0.033678	1.262515	0.178702	-0.000000	-0.000000	0.000000
0.030000	-14.010073	-1.081044	3.159765	41.830522	-2.440251	2.381992	-49.740468	4.001392	20.450872	4.554808	-6.788661	-31.583523	17.151782	-0.031811	1.261539	0.178929	-0.000000	-0.000000	0.000000
0.040000	-14.090719	-1.090495	3.109108	42.050681	-2.442089	2.181077	-49.742029	4.042287	20.630054	4.507634	-6.854561	-32.101916	17.563052	-0.029530	1.260437	0.179181	-0.000000	-0.000000	0.000000
0.050000	-14.201565	-1.098796	3.049780	42.318402	-2.453427	1.952024	-49.690897	4.080845	20.819407	4.465325	-6.966163	-32.618372	18.012468	-0.026893	1.259259	0.179443	-0.000000	-0.000000	0.000000
0.060000	-14.332641	-1.105876	2.973237	42.619825	-2.466545	1.717947	-49.569643	4.097265	20.994640	4.426423	-7.107860	-33.091835	18.473344	-0.023990	1.258060	0.179706	-0.000000	-0.000000	0.000000
0.070000	-14.466971	-1.115089	2.869231	42.933998	-2.467062	1.501938	-49.366199	4.074328	21.126030	4.382991	-7.256806	-33.487897	18.921998	-0.020912	1.256890	0.179963	-0.000000	-0.000000	0.000000
0.080000	-14.588494	-1.129553	2.730511	43.242361	-2.442483	1.317655	-49.078455	4.005007	21.189041	4.326173	-7.392951	-33.785214	19.342208	-0.017731	1.255779	0.180219	-0.000000	-0.000000	0.000000
0.090000	-14.683851	-1.152128	2.555546	43.529732	-2.385661	1.170470	-48.713208	3.888250	21.167098	4.247071	-7.504258	-33.976742	19.721219	-0.014494	1.254750	0.180485	-0.000000	-0.000000	0.000000
0.100000	-14.744614	-1.188245	2.349801	43.784830	-2.294079	1.061382	-48.282305	3.721322	21.053700	4.135165	-7.587787	-34.067345	20.044556	-0.011214	1.253825	0.180772	-0.000000	-0.000000	0.000000
0.110000	-14.772575	-1.246893	2.126163	44.004862	-2.169505	0.986357	-47.799913	3.498493	20.856759	3.979274	-7.647909	-34.069369	20.296793	-0.007878	1.253036	0.181090	-0.000000	-0.000000	0.000000
0.120000	-14.782850	-1.337518	1.903437	44.199061	-2.018909	0.932231	-47.281611	3.217387	20.599823	3.771773	-7.692401	-33.997847	20.469486	-0.004448	1.252432	0.181447	-0.000000	-0.000000	0.000000
0.130000	-14.795013	-1.465547	1.701735	44.380572	-1.853327	0.881003	-46.743736	2.884893	20.310422	3.512309	-7.725874	-33.865942	20.563184	-0.000878	1.252069	0.181847	-0.000000	-0.000000	0.000000
0.140000	-14.816141	-1.630006	1.535930	44.550081	-1.683293	0.824085	-46.202123	2.515586	20.000857	3.207820	-7.744136	-33.682006	20.576596	0.002861	1.252007	0.182295	-0.000000	-0.000000	0.000000
0.150000	-14.836791	-1.824065	1.410995	44.692932	-1.514854	0.767272	-45.671774	2.127733	19.664981	2.869975	-7.738784	-33.451406	20.498895	0.006776	1.252296	0.182793	-0.000000	-0.000000	0.000000
0.160000	-14.843533	-2.037698	1.322298	44.792776	-1.349758	0.719719	-45.167614	1.743468	19.294249	2.512513	-7.708745	-33.182461	20.314359	0.010863	1.252972	0.183334	-0.000000	-0.000000	0.000000
0.170000	-14.828732	-2.261275	1.260200	44.841416	-1.187605	0.683464	-44.704508	1.388097	18.890992	2.148224	-7.664008	-32.892207	20.007109	0.015118	1.254055	0.183908	-0.000000	-0.000000	0.000000
0.180000	-14.787111	-2.488800	1.215764	44.834473	-1.026770	0.653932	-44.296104	1.084994	18.467119	1.785112	-7.618281	-32.610101	19.559576	0.019536	1.255551	0.184505	-0.000000	-0.000000	0.000000
0.190000	-14.709956	-2.718136	1.185751	44.765254	-0.866597	0.625590	-43.954444	0.849531	18.039513	1.426164	-7.579494	-32.379719	18.951660	0.024101	1.257450	0.185123	-0.000000	-0.000000	0.000000
0.200000	-14.591341	-2.947300	1.174816	44.631699	-0.711657	0.597940	-43.690209	0.680138	17.636487	1.074487	-7.545836	-32.257266	18.159567	0.028793	1.259725	0.185771	-0.000000	-0.000000	0.000000
0.210000	-14.440955	-3.171717	1.192854	44.449200	-0.572042	0.577458	-43.511404	0.552995	17.309110	0.736753	-7.509080	-32.307009	17.155024	0.033591	1.262331	0.186461	-0.000000	-0.000000	0.000000
0.220000	-14.283807	-3.385324	1.251670	44.248186	-0.459849	0.572643	-43.420551	0.432277	17.127237	0.422128	-7.459315	-32.594564	15.909687	0.038480	1.265206	0.187207	-0.000000	-0.000000	0.000000
0.230000	-14.145288	-3.582826	1.364389	44.056499	-0.386910	0.589266	-43.412761	0.287006	17.159442	0.140586	-7.386303	-33.178767	14.399793	0.043437	1.268271	0.188018	-0.000000	-0.000000	0.000000
0.240000	-14.041448	-3.762678	1.544007	43.889328	-0.361680	0.629839	-43.476786	0.100121	17.458442	-0.100146	-7.282659	-34.105002	12.612224	0.048421	1.271433	0.188896	-0.000000	-0.000000	0.000000
0.250000	-13.981637	-3.929552	1.798449	43.754790	-0.384326	0.694630	-43.600228	-0.130263	18.059693	-0.298337	-7.150678	-35.401368	10.557930	0.053390	1.274579	0.189835	-0.000000	-0.000000	0.000000
0.260000	-13.967870	-4.092764	2.124261	43.657406	-0.443995	0.785515	-43.776161	-0.395240	18.976472	-0.458832	-7.003048	-37.075109	8.285541	0.058298	1.277573	0.190824	-0.000000	-0.000000	0.000000
0.270000	-13.985653	-4.263342	2.504763	43.590434	-0.519542	0.909899	-44.005722	-0.682558	20.187395	-0.592208	-6.854072	-39.109182	5.889852	0.063096	1.280253	0.191847	-0.000000	-0.000000	0.000000
0.280000	-14.007312	-4.452260	2.916459	43.537748	-0.585262	1.073621	-44.296665	-0.977936	21.640453	-0.712676	-6.713961	-41.461546	3.518772	0.067738	1.282447	0.192893	-0.000000	-0.000000	0.000000
0.290000	-14.012497	-4.667013	3.337089	43.491841	-0.619811	1.267309	-44.660233	-1.261051	23.276699	-0.832670	-6.591855	-44.065621	1.371418	0.072196	1.283980	0.193953	-0.000000	-0.000000	0.000000
0.300000	-13.996679	-4.907212	3.748492	43.458713	-0.611163	1.466149	-45.105125	-1.508394	25.040862	-0.958004	-6.495943	-46.829541	-0.326802	0.076468	1.284705	0.195030	-0.000000	-0.000000	0.000000
0.310000	-13.963813	-5.162038	4.137727	43.447238	-0.558891	1.642262	-45.631808	-1.701461	26.876220	-1.084116	-6.428824	-49.635417	-1.375233	0.080572	1.284519	0.196137	-0.000000	-0.000000	0.000000
0.320000	-13.927588	-5.410190	4.498868	43.470258	-0.477917	1.772853	-46.232526	-1.829255	28.730032	-1.191446	-6.389213	-52.339904	-1.661593	0.084536	1.283375	0.197289	-0.000000	-0.000000	0.000000
0.330000	-13.912979	-5.624463	4.832530	43.547464	-0.397074	1.843787	-46.893829	-1.885324	30.558843	-1.247253	-6.377634	-54.776120	-1.210321	0.088400	1.281275	0.198490	-0.000000	-0.000000	0.000000
0.340000	-13.944106	-5.781142	5.141611	43.693884	-0.347620	1.853218	-47.597498	-1.865258	32.318001	-1.218543	-6.397841	-56.758790	-0.191309	0.092206	1.278257	0.199723	-0.000000	-0.000000	0.000000
0.350000	-14.037656	-5.868580	5.423465	43.915006	-0.348399	1.810363	-48.322720	-1.766810	33.956543	-1.087883	-6.457388	-58.095682	1.116682	0.096002	1.274377	0.200948	-0.000000	-0.000000	0.000000
0.360000	-14.205904	-5.889413	5.662525	44.212942	-0.396104	1.730636	-49.050917	-1.592796	35.422983	-0.862686	-6.568822	-58.606537	2.398372	0.099852	1.269683	0.202108	-0.000000	-0.000000	0.000000
0.370000	-14.450078	-5.857213	5.830771	44.581786	-0.464626	1.630276	-49.770254	-1.352593	36.663242	-0.574710	-6.743974	-58.147146	3.378797	0.103837	1.264199	0.203142	-0.000000	-0.000000	0.000000
0.380000	-14.746662	-5.793685	5.897492	44.993729	-0.512231	1.517272	-50.477608	-1.058374	37.613486	-0.272064	-6.980298	-56.634682	3.868528	0.108034	1.257913	0.203993	-0.000000	-0.000000	0.000000
0.390000	-15.044918	-5.729086	5.840087	45.396194	-0.490681	1.385576	-51.178614	-0.720035	38.204284	-0.009863	-7.252766	-54.067848	3.776409	0.112499	1.250775	0.204612	-0.000000	-0.000000	0.000000
0.400000	-15.284731	-5.701006	5.647038	45.731178	-0.352978	1.221842	-51.887896	-0.343830	38.381897	0.157385	-7.523483	-50.535325	3.102753	0.117268	1.242704	0.204960	-0.000000	-0.000000	0.000000
